<?xml version="1.0" encoding="UTF-8"?>
<svg width="80" height="80" viewBox="0 0 80 80" fill="none" xmlns="http://www.w3.org/2000/svg">
  <rect width="80" height="80" rx="20" fill="#1E1B4B"/>
  <g transform="translate(16 16)">
    <rect x="0" y="0" width="48" height="48" rx="12" fill="#6D28D9"/>
    <path d="M16 14h8c4 0 6 1.9 6 5.2 0 2.2-1.2 3.8-3.1 4.4v0.2c2.4 0.5 3.9 2.4 3.9 5 0 3.7-2.5 6.2-7.1 6.2H16V14Zm6.8 7c2 0 3-0.8 3-2.4S24.7 16 22.8 16H20v5h2.8Zm0.4 11c2.1 0 3.3-0.9 3.3-2.7 0-1.7-1.2-2.6-3.3-2.6H20v5.3h3.2Z" fill="white"/>
  </g>
</svg>
