<svg width="48" height="48" viewBox="0 0 48 48" fill="none" xmlns="http://www.w3.org/2000/svg">
  <rect width="48" height="48" rx="24" fill="#374151"/>
  <path d="M24 14C18.48 14 14 18.48 14 24C14 29.52 18.48 34 24 34C29.52 34 34 29.52 34 24C34 18.48 29.52 14 24 14ZM24 20C25.66 20 27 21.34 27 23C27 24.66 25.66 26 24 26C22.34 26 21 24.66 21 23C21 21.34 22.34 20 24 20ZM24 31.2C21.5 31.2 19.29 29.92 18 27.98C18.03 25.99 22 24.9 24 24.9C25.99 24.9 29.97 25.99 30 27.98C28.71 29.92 26.5 31.2 24 31.2Z" fill="#9CA3AF"/>
</svg>
