<?xml version="1.0" encoding="UTF-8"?>
<svg width="640" height="320" viewBox="0 0 640 320" fill="none" xmlns="http://www.w3.org/2000/svg">
  <defs>
    <linearGradient id="premiumGradient" x1="0" y1="0" x2="0" y2="1">
      <stop offset="0%" stop-color="#38BDF8" stop-opacity="0.35"/>
      <stop offset="100%" stop-color="#38BDF8" stop-opacity="0.05"/>
    </linearGradient>
  </defs>
  <rect x="0" y="0" width="640" height="320" rx="18" fill="#0F172A"/>
  <g transform="translate(64 40)">
    <rect x="0" y="0" width="512" height="240" rx="12" fill="#111827" stroke="#1E293B" stroke-width="1.5"/>
    <g stroke="#1F2937" stroke-width="1" stroke-dasharray="4 6">
      <line x1="48" y1="200" x2="464" y2="200"/>
      <line x1="48" y1="160" x2="464" y2="160"/>
      <line x1="48" y1="120" x2="464" y2="120"/>
      <line x1="48" y1="80"  x2="464" y2="80"/>
      <line x1="48" y1="40"  x2="464" y2="40"/>
    </g>
    <g stroke="#1F2937" stroke-width="1" stroke-dasharray="6 6">
      <line x1="48" y1="32" x2="48" y2="232"/>
      <line x1="144" y1="32" x2="144" y2="232"/>
      <line x1="240" y1="32" x2="240" y2="232"/>
      <line x1="336" y1="32" x2="336" y2="232"/>
      <line x1="432" y1="32" x2="432" y2="232"/>
    </g>
    <g>
      <line x1="384" y1="32" x2="384" y2="232" stroke="#F97316" stroke-width="2" stroke-dasharray="6 6"/>
      <text x="384" y="24" font-size="12" fill="#F97316" font-weight="600" text-anchor="middle">Kink 80%</text>
    </g>
    <path d="M48 200 L240 160 L384 120 L416 88 L432 48" fill="url(#premiumGradient)" stroke="none"/>
    <path d="M48 200 L240 160 L384 120 L416 88 L432 48" stroke="#38BDF8" stroke-width="5" stroke-linecap="round" stroke-linejoin="round" fill="none"/>
    <g fill="#38BDF8" stroke="#0F172A" stroke-width="2.5">
      <circle cx="48" cy="200" r="6"/>
      <circle cx="240" cy="160" r="6"/>
      <circle cx="384" cy="120" r="6"/>
      <circle cx="416" cy="88"  r="6"/>
      <circle cx="432" cy="48"  r="6"/>
    </g>
    <g font-size="12" fill="#94A3B8">
      <text x="48" y="246" text-anchor="middle">0%</text>
      <text x="144" y="246" text-anchor="middle">20%</text>
      <text x="240" y="246" text-anchor="middle">40%</text>
      <text x="336" y="246" text-anchor="middle">60%</text>
      <text x="432" y="246" text-anchor="middle">80%</text>
      <text x="480" y="246" text-anchor="middle">100%</text>
    </g>
    <g font-size="12" fill="#94A3B8">
      <text x="36" y="204" text-anchor="end">2%</text>
      <text x="36" y="164" text-anchor="end">6%</text>
      <text x="36" y="124" text-anchor="end">10%</text>
      <text x="36" y="84"  text-anchor="end">15%</text>
      <text x="36" y="44"  text-anchor="end">22%</text>
    </g>
    <text x="256" y="272" font-size="13" fill="#CBD5F5" text-anchor="middle">Pool Utilization</text>
    <text x="-54" y="116" font-size="13" fill="#CBD5F5" text-anchor="middle" transform="rotate(-90 -54 116)">Premium Rate (APR)</text>
  </g>
</svg>
